<?xml version="1.0" encoding="UTF-8" standalone="no"?>
<svg width="599px" height="150px" viewBox="0 0 599 150" version="1.1" xmlns="http://www.w3.org/2000/svg" xmlns:xlink="http://www.w3.org/1999/xlink" xmlns:sketch="http://www.bohemiancoding.com/sketch/ns">
    <!-- Generator: Sketch 3.2.2 (9983) - http://www.bohemiancoding.com/sketch -->
    <title>cucumber</title>
    <desc>Created with Sketch.</desc>
    <defs></defs>
    <g id="Logos" stroke="none" stroke-width="1" fill="none" fill-rule="evenodd" sketch:type="MSPage">
        <g id="cucumber" sketch:type="MSLayerGroup">
            <g id="g6053" sketch:type="MSShapeGroup">
                <path d="M524.711761,87.0018876 C517.652859,87.0018876 513.18222,90.5411074 509.888066,95.9679111 C509.888066,94.5522232 510.593956,92.9005872 510.593956,91.7208473 L510.593956,89.3613674 L498.829118,89.3613674 L498.829118,148.348364 L510.593956,148.348364 L510.593956,114.371854 C510.593956,104.697987 515.770485,98.7992869 524.711761,98.7992869 L527.064729,98.7992869 L527.064729,87.0018876 L524.711761,87.0018876 L524.711761,87.0018876 Z" id="path5443" fill="#000000"></path>
                <path d="M46.3534605,108.709102 C43.059306,103.518247 38.3533709,99.9790268 31.529765,99.9790268 C20.7061144,99.9790268 12.9413215,108.237206 12.9413215,118.618918 C12.9413215,129.000629 20.7061144,137.258809 31.529765,137.258809 C38.3533709,137.258809 43.059306,133.955537 46.3534605,128.764681 L57.1771112,135.135277 C52.0005826,143.157508 42.3534157,149.056208 31.529765,149.056208 C11.5295409,149.056208 7.10542736e-15,133.955537 7.10542736e-15,118.854866 C7.10542736e-15,103.754195 11.7648377,88.6535235 31.529765,88.6535235 C43.7651962,88.6535235 51.5299891,94.5522232 57.1771112,102.574455 L46.3534605,108.709102 L46.3534605,108.709102 Z" id="path5445" fill="#000000"></path>
                <path d="M67.5301684,90.0692114 L79.7655996,90.0692114 L79.7655996,122.158138 C79.7655996,130.652265 85.8833152,136.550965 93.6481081,136.550965 C101.177604,136.550965 107.530617,130.416317 107.530617,122.158138 L107.530617,90.0692114 L119.766048,90.0692114 L119.766048,123.10193 C119.766048,139.146393 107.29532,148.82026 93.6481081,148.82026 C80.0008964,148.82026 67.5301684,139.146393 67.5301684,123.10193 L67.5301684,90.0692114 L67.5301684,90.0692114 Z" id="path5447" fill="#000000"></path>
                <path d="M177.178456,108.709102 C173.884301,103.518247 169.178366,99.9790268 162.35476,99.9790268 C151.53111,99.9790268 143.766317,108.237206 143.766317,118.618918 C143.766317,129.000629 151.53111,137.258809 162.35476,137.258809 C169.178366,137.258809 173.884301,133.955537 177.178456,128.764681 L188.002106,135.135277 C182.825578,143.157508 173.178411,149.056208 162.35476,149.056208 C142.354536,149.056208 130.824995,133.955537 130.824995,118.854866 C130.824995,103.754195 142.354536,88.6535235 162.35476,88.6535235 C174.590191,88.6535235 182.354984,94.5522232 188.002106,102.574455 L177.178456,108.709102 L177.178456,108.709102 Z" id="path5449" fill="#000000"></path>
                <path d="M198.355164,90.0692114 L210.590595,90.0692114 L210.590595,122.158138 C210.590595,130.652265 216.70831,136.550965 224.473103,136.550965 C232.002599,136.550965 238.355612,130.416317 238.355612,122.158138 L238.355612,90.0692114 L250.591043,90.0692114 L250.591043,123.10193 C250.591043,139.146393 238.120315,148.82026 224.473103,148.82026 C210.825892,148.82026 198.355164,139.146393 198.355164,123.10193 L198.355164,90.0692114 L198.355164,90.0692114 Z" id="path5451" fill="#000000"></path>
                <path d="M265.885332,111.540478 C265.885332,96.911703 275.532499,88.6535235 286.826743,88.6535235 C295.532723,88.6535235 301.650439,92.9005872 304.003406,98.7992869 L304.238703,98.7992869 C306.59167,92.6646393 312.709386,88.6535235 321.415366,88.6535235 C332.70961,88.6535235 342.356777,97.147651 342.356777,111.540478 L342.356777,147.404572 L330.121346,147.404572 L330.121346,111.540478 C330.121346,104.697987 325.886004,100.686871 320.709476,100.686871 C314.827057,100.686871 310.591715,104.226091 310.591715,113.192114 L310.591715,147.168624 L298.356284,147.168624 L298.356284,113.192114 C298.356284,104.226091 294.120942,100.686871 288.238524,100.686871 C283.061995,100.686871 278.826653,104.697987 278.826653,111.540478 L278.826653,147.168624 L265.885332,147.168624 L265.885332,111.540478 L265.885332,111.540478 Z" id="path5453" fill="#000000"></path>
                <path d="M357.415769,73.0809564 L369.651201,73.0809564 L369.651201,97.147651 L369.886497,97.147651 C372.710058,92.4286913 380.474851,88.6535235 388.474941,88.6535235 C403.298636,88.6535235 418.122332,99.7430789 418.122332,118.854866 C418.122332,137.966653 403.298636,149.056208 388.474941,149.056208 C380.474851,149.056208 372.710058,145.28104 369.886497,140.562081 L369.651201,140.562081 L369.651201,147.64052 L357.415769,147.64052 L357.415769,73.0809564 L357.415769,73.0809564 Z M387.298457,100.214975 C377.180697,100.214975 369.651201,108.237206 369.651201,118.854866 C369.651201,129.472525 377.180697,137.494757 387.298457,137.494757 C397.651514,137.494757 405.18101,129.472525 405.18101,118.854866 C405.18101,108.001258 397.651514,100.214975 387.298457,100.214975 L387.298457,100.214975 Z" id="path5455" fill="#000000"></path>
                <path d="M484.005423,134.899329 C477.181817,143.629404 467.769947,148.82026 457.41689,148.82026 C437.416666,148.82026 425.887125,133.719589 425.887125,118.618918 C425.887125,103.518247 437.651962,88.6535235 457.41689,88.6535235 C469.181727,88.6535235 487.064281,98.5633389 487.064281,120.74245 L487.064281,122.865982 L439.769633,122.865982 C440.475523,131.596057 448.71091,137.966653 457.181593,137.966653 C463.769902,137.966653 469.417024,134.663381 473.652366,129.000629 L484.005423,134.899329 L484.005423,134.899329 Z M472.711179,112.720218 C470.122914,103.990143 463.769902,99.2711829 455.769812,99.2711829 C448.00502,99.2711829 441.652007,104.226091 439.534336,112.720218 L472.711179,112.720218 L472.711179,112.720218 Z" id="path5457" fill="#000000"></path>
                <path d="M560.458233,0.927170197 C539.162621,0.927170197 521.928389,18.2091017 521.928389,39.563653 C521.928389,58.365022 535.368654,73.9870674 553.105209,77.4627983 L553.105209,88.5228602 C576.164512,85.036724 596.582131,66.6814642 598.105713,42.5867366 C599.022782,28.0837288 591.811631,13.2779107 579.649624,6.0885324 C578.953299,5.676911 578.245834,5.26827716 577.517247,4.90879247 C576.774848,4.54249313 576.012499,4.18549014 575.23781,3.87652003 C574.991901,3.77336782 574.750948,3.67979226 574.502508,3.58158505 C573.825895,3.33112272 573.143168,3.049083 572.443661,2.84424759 C568.673438,1.59814516 564.643126,0.927170197 560.458233,0.927170197 L560.458233,0.927170197 Z" id="path3943" fill="#00A818"></path>
                <path d="M568.399498,15.2315169 C567.081469,15.0960308 565.693585,15.5559454 564.722986,16.7061918 C564.017096,17.6499837 563.575915,18.5642822 563.105321,19.5080741 C561.69354,22.811346 562.164134,26.3505658 564.281805,28.9459936 C567.575959,28.2381496 570.370108,26.1293645 571.781889,22.8260927 C572.252482,21.8823008 572.517191,20.6730673 572.517191,19.7292754 C572.664252,17.222328 570.596214,15.4573264 568.399498,15.2315169 L568.399498,15.2315169 Z M551.266953,15.4527181 C549.118491,15.6577902 547.07573,17.3697955 547.07573,19.7292754 C547.07573,20.6730673 547.340438,21.8823008 547.811032,22.8260927 C549.222813,26.1293645 552.237552,28.2381496 555.531707,28.9459936 C557.414081,26.3505658 557.89938,22.811346 556.4876,19.5080741 C556.017006,18.5642822 555.575825,17.635237 554.869935,16.927393 C553.899335,15.7771466 552.556031,15.329675 551.266953,15.4527181 L551.266953,15.4527181 Z M539.722706,26.807715 C536.012301,26.9986677 534.354999,31.6741422 537.443269,34.1073558 C538.384456,34.8151998 539.296231,35.331336 540.237418,35.803232 C543.531572,37.2189199 547.340438,36.7322772 550.164,34.8446933 C549.458109,31.7773694 547.061024,28.9607404 543.766869,27.5450524 C542.590385,27.0731565 541.634492,26.807715 540.458008,26.807715 C540.1933,26.7782215 539.970066,26.7949738 539.722706,26.807715 L539.722706,26.807715 Z M575.973112,41.1120617 C573.817756,41.070582 571.634828,41.7019316 569.870103,42.8816716 C570.575993,45.9489954 572.973079,48.7656245 576.267233,50.1813124 C577.443717,50.6532084 578.39961,50.9186499 579.576094,50.9186499 C583.811435,51.1545978 585.884988,45.9047551 582.590833,43.5452753 C581.649646,42.8374313 580.737871,42.3950288 579.796684,41.9231329 C578.561377,41.3922499 577.266324,41.1369471 575.973112,41.1120617 L575.973112,41.1120617 Z M543.840399,41.3332629 C542.547186,41.3581554 541.252135,41.6134511 540.016827,42.1443341 C538.840343,42.6162301 537.928568,43.1323663 537.222678,43.8402103 C534.16382,46.4356381 536.222667,51.3757991 540.458008,51.1398511 C541.634492,51.1398511 542.825682,50.8744096 543.766869,50.4025136 C547.061024,48.9868257 549.399285,46.1701966 549.869879,43.1028728 C548.105153,41.9231329 545.995755,41.291788 543.840399,41.3332629 L543.840399,41.3332629 Z M555.752297,48.55917 C552.458143,49.2670139 549.663994,51.3757991 548.252213,54.6790709 C547.78162,55.6228628 547.516911,56.7583625 547.516911,57.7021545 C547.281614,61.7132702 552.737558,63.8662956 555.090525,60.7989718 C555.796416,59.8551798 556.237597,58.9408814 556.70819,57.9970895 C558.119971,54.9297656 557.634671,51.3905458 555.752297,48.55917 L555.752297,48.55917 Z M564.502395,48.7803712 C562.620021,51.3757991 562.134722,54.9150189 563.546502,58.2182907 C564.017096,59.1620826 564.458277,60.0911278 565.164168,60.7989718 C567.752432,63.6303476 573.193669,61.5363092 572.958373,57.9970895 C572.958373,57.0532975 572.693664,55.8440641 572.22307,54.9002721 C570.81129,51.5970003 567.79655,49.4882152 564.502395,48.7803712 L564.502395,48.7803712 Z" id="rect4005" fill="#FFFFFF"></path>
            </g>
        </g>
    </g>
</svg>